<svg xmlns="http://www.w3.org/2000/svg" xmlns:xlink="http://www.w3.org/1999/xlink" viewBox="0 0 1080 1080" width="1080" height="1080" preserveAspectRatio="xMidYMid meet" style="width: 100%; height: 100%; transform: translate3d(0px, 0px, 0px); content-visibility: visible;"><defs><clipPath id="__lottie_element_2"><rect width="1080" height="1080" x="0" y="0"></rect></clipPath></defs><g clip-path="url(#__lottie_element_2)"><g transform="matrix(2.842399835586548,0,0,2.842399835586548,775.919189453125,611.0599975585938)" opacity="0.02" style="display: none;"><g opacity="1" transform="matrix(1,0,0,1,-83,-25)"><path fill="rgb(4,76,208)" fill-opacity="1" d=" M0,-150 C82.78500366210938,-150 150,-82.78500366210938 150,0 C150,82.78500366210938 82.78500366210938,150 0,150 C-82.78500366210938,150 -150,82.78500366210938 -150,0 C-150,-82.78500366210938 -82.78500366210938,-150 0,-150z"></path><path stroke-linecap="butt" stroke-linejoin="miter" fill-opacity="0" stroke-miterlimit="4" stroke="rgb(233,66,52)" stroke-opacity="1" stroke-width="0" d=" M0,-150 C82.78500366210938,-150 150,-82.78500366210938 150,0 C150,82.78500366210938 82.78500366210938,150 0,150 C-82.78500366210938,150 -150,82.78500366210938 -150,0 C-150,-82.78500366210938 -82.78500366210938,-150 0,-150z"></path></g></g><g transform="matrix(2.862440824508667,0,0,2.862440824508667,777.5825805664062,611.56103515625)" opacity="0.009340000000000829" style="display: none;"><g opacity="1" transform="matrix(1,0,0,1,-83,-25)"><path fill="rgb(4,76,208)" fill-opacity="1" d=" M0,-150 C82.78500366210938,-150 150,-82.78500366210938 150,0 C150,82.78500366210938 82.78500366210938,150 0,150 C-82.78500366210938,150 -150,82.78500366210938 -150,0 C-150,-82.78500366210938 -82.78500366210938,-150 0,-150z"></path><path stroke-linecap="butt" stroke-linejoin="miter" fill-opacity="0" stroke-miterlimit="4" stroke="rgb(233,66,52)" stroke-opacity="1" stroke-width="0" d=" M0,-150 C82.78500366210938,-150 150,-82.78500366210938 150,0 C150,82.78500366210938 82.78500366210938,150 0,150 C-82.78500366210938,150 -150,82.78500366210938 -150,0 C-150,-82.78500366210938 -82.78500366210938,-150 0,-150z"></path></g></g><g transform="matrix(2.8611624240875244,0,0,2.8611624240875244,777.4765014648438,611.529052734375)" opacity="0.01001999999999839" style="display: none;"><g opacity="1" transform="matrix(1,0,0,1,-83,-25)"><path fill="rgb(4,76,208)" fill-opacity="1" d=" M0,-150 C82.78500366210938,-150 150,-82.78500366210938 150,0 C150,82.78500366210938 82.78500366210938,150 0,150 C-82.78500366210938,150 -150,82.78500366210938 -150,0 C-150,-82.78500366210938 -82.78500366210938,-150 0,-150z"></path><path stroke-linecap="butt" stroke-linejoin="miter" fill-opacity="0" stroke-miterlimit="4" stroke="rgb(233,66,52)" stroke-opacity="1" stroke-width="0" d=" M0,-150 C82.78500366210938,-150 150,-82.78500366210938 150,0 C150,82.78500366210938 82.78500366210938,150 0,150 C-82.78500366210938,150 -150,82.78500366210938 -150,0 C-150,-82.78500366210938 -82.78500366210938,-150 0,-150z"></path></g></g><g transform="matrix(2.842512845993042,0,0,2.842512845993042,775.9285888671875,611.0628051757812)" opacity="0.01994000000000085" style="display: none;"><g opacity="1" transform="matrix(1,0,0,1,-83,-25)"><path fill="rgb(4,76,208)" fill-opacity="1" d=" M0,-150 C82.78500366210938,-150 150,-82.78500366210938 150,0 C150,82.78500366210938 82.78500366210938,150 0,150 C-82.78500366210938,150 -150,82.78500366210938 -150,0 C-150,-82.78500366210938 -82.78500366210938,-150 0,-150z"></path><path stroke-linecap="butt" stroke-linejoin="miter" fill-opacity="0" stroke-miterlimit="4" stroke="rgb(233,66,52)" stroke-opacity="1" stroke-width="0" d=" M0,-150 C82.78500366210938,-150 150,-82.78500366210938 150,0 C150,82.78500366210938 82.78500366210938,150 0,150 C-82.78500366210938,150 -150,82.78500366210938 -150,0 C-150,-82.78500366210938 -82.78500366210938,-150 0,-150z"></path></g></g><g transform="matrix(2.7860751152038574,0,0,2.7860751152038574,771.2442626953125,609.65185546875)" opacity="0.04995999999999924" style="display: block;"><g opacity="1" transform="matrix(1,0,0,1,-83,-25)"><path fill="rgb(4,76,208)" fill-opacity="1" d=" M0,-150 C82.78500366210938,-150 150,-82.78500366210938 150,0 C150,82.78500366210938 82.78500366210938,150 0,150 C-82.78500366210938,150 -150,82.78500366210938 -150,0 C-150,-82.78500366210938 -82.78500366210938,-150 0,-150z"></path><path stroke-linecap="butt" stroke-linejoin="miter" fill-opacity="0" stroke-miterlimit="4" stroke="rgb(233,66,52)" stroke-opacity="1" stroke-width="0" d=" M0,-150 C82.78500366210938,-150 150,-82.78500366210938 150,0 C150,82.78500366210938 82.78500366210938,150 0,150 C-82.78500366210938,150 -150,82.78500366210938 -150,0 C-150,-82.78500366210938 -82.78500366210938,-150 0,-150z"></path></g></g><g transform="matrix(2.4100751876831055,0,0,2.4100751876831055,740.0362548828125,600.2518920898438)" opacity="0.24995999999999924" style="display: block;"><g opacity="1" transform="matrix(1,0,0,1,-83,-25)"><path fill="rgb(4,76,208)" fill-opacity="1" d=" M0,-150 C82.78500366210938,-150 150,-82.78500366210938 150,0 C150,82.78500366210938 82.78500366210938,150 0,150 C-82.78500366210938,150 -150,82.78500366210938 -150,0 C-150,-82.78500366210938 -82.78500366210938,-150 0,-150z"></path><path stroke-linecap="butt" stroke-linejoin="miter" fill-opacity="0" stroke-miterlimit="4" stroke="rgb(233,66,52)" stroke-opacity="1" stroke-width="0" d=" M0,-150 C82.78500366210938,-150 150,-82.78500366210938 150,0 C150,82.78500366210938 82.78500366210938,150 0,150 C-82.78500366210938,150 -150,82.78500366210938 -150,0 C-150,-82.78500366210938 -82.78500366210938,-150 0,-150z"></path></g></g><g transform="matrix(2.0340752601623535,0,0,2.0340752601623535,708.8282470703125,590.8518676757812)" opacity="0.44995999999999925" style="display: block;"><g opacity="1" transform="matrix(1,0,0,1,-83,-25)"><path fill="rgb(4,76,208)" fill-opacity="1" d=" M0,-150 C82.78500366210938,-150 150,-82.78500366210938 150,0 C150,82.78500366210938 82.78500366210938,150 0,150 C-82.78500366210938,150 -150,82.78500366210938 -150,0 C-150,-82.78500366210938 -82.78500366210938,-150 0,-150z"></path><path stroke-linecap="butt" stroke-linejoin="miter" fill-opacity="0" stroke-miterlimit="4" stroke="rgb(233,66,52)" stroke-opacity="1" stroke-width="0" d=" M0,-150 C82.78500366210938,-150 150,-82.78500366210938 150,0 C150,82.78500366210938 82.78500366210938,150 0,150 C-82.78500366210938,150 -150,82.78500366210938 -150,0 C-150,-82.78500366210938 -82.78500366210938,-150 0,-150z"></path></g></g><g transform="matrix(1.658075213432312,0,0,1.658075213432312,677.6202392578125,581.451904296875)" opacity="0.6499599999999992" style="display: block;"><g opacity="1" transform="matrix(1,0,0,1,-83,-25)"><path fill="rgb(4,76,208)" fill-opacity="1" d=" M0,-150 C82.78500366210938,-150 150,-82.78500366210938 150,0 C150,82.78500366210938 82.78500366210938,150 0,150 C-82.78500366210938,150 -150,82.78500366210938 -150,0 C-150,-82.78500366210938 -82.78500366210938,-150 0,-150z"></path><path stroke-linecap="butt" stroke-linejoin="miter" fill-opacity="0" stroke-miterlimit="4" stroke="rgb(233,66,52)" stroke-opacity="1" stroke-width="0" d=" M0,-150 C82.78500366210938,-150 150,-82.78500366210938 150,0 C150,82.78500366210938 82.78500366210938,150 0,150 C-82.78500366210938,150 -150,82.78500366210938 -150,0 C-150,-82.78500366210938 -82.78500366210938,-150 0,-150z"></path></g></g><g transform="matrix(1.2820751667022705,0,0,1.2820751667022705,646.4122314453125,572.0518798828125)" opacity="0.8499599999999993" style="display: block;"><g opacity="1" transform="matrix(1,0,0,1,-83,-25)"><path fill="rgb(4,76,208)" fill-opacity="1" d=" M0,-150 C82.78500366210938,-150 150,-82.78500366210938 150,0 C150,82.78500366210938 82.78500366210938,150 0,150 C-82.78500366210938,150 -150,82.78500366210938 -150,0 C-150,-82.78500366210938 -82.78500366210938,-150 0,-150z"></path><path stroke-linecap="butt" stroke-linejoin="miter" fill-opacity="0" stroke-miterlimit="4" stroke="rgb(233,66,52)" stroke-opacity="1" stroke-width="0" d=" M0,-150 C82.78500366210938,-150 150,-82.78500366210938 150,0 C150,82.78500366210938 82.78500366210938,150 0,150 C-82.78500366210938,150 -150,82.78500366210938 -150,0 C-150,-82.78500366210938 -82.78500366210938,-150 0,-150z"></path></g></g><g transform="matrix(1,0,0,1,621,565)" opacity="1" style="display: none;"><g opacity="1" transform="matrix(1,0,0,1,-83,-25)"><path fill="rgb(4,76,208)" fill-opacity="1" d=" M0,-150 C82.78500366210938,-150 150,-82.78500366210938 150,0 C150,82.78500366210938 82.78500366210938,150 0,150 C-82.78500366210938,150 -150,82.78500366210938 -150,0 C-150,-82.78500366210938 -82.78500366210938,-150 0,-150z"></path><path stroke-linecap="butt" stroke-linejoin="miter" fill-opacity="0" stroke-miterlimit="4" stroke="rgb(233,66,52)" stroke-opacity="1" stroke-width="0" d=" M0,-150 C82.78500366210938,-150 150,-82.78500366210938 150,0 C150,82.78500366210938 82.78500366210938,150 0,150 C-82.78500366210938,150 -150,82.78500366210938 -150,0 C-150,-82.78500366210938 -82.78500366210938,-150 0,-150z"></path></g></g><g transform="matrix(1,0,0,1,623,565)" opacity="1" style="display: block;"><g opacity="1" transform="matrix(1,0,0,1,-83,-25)"><path fill="rgb(4,76,208)" fill-opacity="1" d=" M0,-150 C82.78500366210938,-150 150,-82.78500366210938 150,0 C150,82.78500366210938 82.78500366210938,150 0,150 C-82.78500366210938,150 -150,82.78500366210938 -150,0 C-150,-82.78500366210938 -82.78500366210938,-150 0,-150z"></path></g></g><g transform="matrix(0.6000000238418579,0,0,0.6000000238418579,-1192.6546630859375,936.2056274414062)" opacity="1" style="display: block;"><g opacity="1" transform="matrix(1,0,0,1,0,0)"><path fill="rgb(255,255,255)" fill-opacity="1" d=" M2888.587890625,-636.7659912109375 C2876.7080078125,-636.7659912109375 2866.761962890625,-641.0479736328125 2858.75,-649.6129760742188 C2850.738037109375,-658.177978515625 2846.73193359375,-668.5390014648438 2846.73193359375,-680.6950073242188 C2846.73193359375,-680.6950073242188 2846.73193359375,-784.7130126953125 2846.73193359375,-784.7130126953125 C2846.73193359375,-796.3170166015625 2850.806884765625,-806.125 2858.95703125,-814.1370239257812 C2867.10693359375,-822.1489868164062 2876.98388671875,-826.155029296875 2888.587890625,-826.155029296875 C2900.19189453125,-826.155029296875 2910.069091796875,-822.1489868164062 2918.218994140625,-814.1370239257812 C2926.368896484375,-806.125 2930.444091796875,-796.3170166015625 2930.444091796875,-784.7130126953125 C2930.444091796875,-784.7130126953125 2930.444091796875,-680.6950073242188 2930.444091796875,-680.6950073242188 C2930.444091796875,-668.5390014648438 2926.43798828125,-658.177978515625 2918.426025390625,-649.6129760742188 C2910.4140625,-641.0479736328125 2900.468017578125,-636.7659912109375 2888.587890625,-636.7659912109375z M2888.587890625,-465.364013671875 C2884.99609375,-465.364013671875 2882.02587890625,-466.53900146484375 2879.677978515625,-468.8869934082031 C2877.330078125,-471.2349853515625 2876.156005859375,-474.2049865722656 2876.156005859375,-477.7969970703125 C2876.156005859375,-477.7969970703125 2876.156005859375,-567.5590209960938 2876.156005859375,-567.5590209960938 C2849.0810546875,-570.5980224609375 2825.94091796875,-581.4409790039062 2806.739990234375,-600.0900268554688 C2787.5390625,-618.739013671875 2776.4189453125,-641.18701171875 2773.3798828125,-667.4329833984375 C2772.827880859375,-671.0250244140625 2773.863037109375,-674.1329956054688 2776.488037109375,-676.7579956054688 C2779.113037109375,-679.3829956054688 2782.35888671875,-680.6950073242188 2786.22705078125,-680.6950073242188 C2789.26611328125,-680.6950073242188 2791.89111328125,-679.5889892578125 2794.10107421875,-677.3790283203125 C2796.31103515625,-675.1690063476562 2797.693115234375,-672.5440063476562 2798.2451171875,-669.5050048828125 C2801.283935546875,-647.1259765625 2811.367919921875,-628.5469970703125 2828.4970703125,-613.7659912109375 C2845.6259765625,-598.9849853515625 2865.656982421875,-591.594970703125 2888.587890625,-591.594970703125 C2911.51904296875,-591.594970703125 2931.549072265625,-598.9849853515625 2948.677978515625,-613.7659912109375 C2965.806884765625,-628.5469970703125 2975.89208984375,-647.1259765625 2978.930908203125,-669.5050048828125 C2979.48291015625,-672.5440063476562 2980.93408203125,-675.1690063476562 2983.281982421875,-677.3790283203125 C2985.6298828125,-679.5889892578125 2988.324951171875,-680.6950073242188 2991.364013671875,-680.6950073242188 C2995.23193359375,-680.6950073242188 2998.407958984375,-679.3829956054688 3000.89501953125,-676.7579956054688 C3003.382080078125,-674.1329956054688 3004.347900390625,-671.0250244140625 3003.7958984375,-667.4329833984375 C3000.757080078125,-641.18701171875 2989.636962890625,-618.739013671875 2970.43603515625,-600.0900268554688 C2951.235107421875,-581.4409790039062 2928.095947265625,-570.5980224609375 2901.02099609375,-567.5590209960938 C2901.02099609375,-567.5590209960938 2901.02099609375,-477.7969970703125 2901.02099609375,-477.7969970703125 C2901.02099609375,-474.2049865722656 2899.845947265625,-471.2349853515625 2897.498046875,-468.8869934082031 C2895.14990234375,-466.53900146484375 2892.179931640625,-465.364013671875 2888.587890625,-465.364013671875z M2888.587890625,-661.6309814453125 C2893.56103515625,-661.6309814453125 2897.635986328125,-663.4959716796875 2900.81298828125,-667.2260131835938 C2903.989990234375,-670.9559936523438 2905.5791015625,-675.4459838867188 2905.5791015625,-680.6950073242188 C2905.5791015625,-680.6950073242188 2905.5791015625,-784.7130126953125 2905.5791015625,-784.7130126953125 C2905.5791015625,-789.4099731445312 2903.9208984375,-793.3469848632812 2900.60595703125,-796.5239868164062 C2897.291015625,-799.7009887695312 2893.284912109375,-801.2899780273438 2888.587890625,-801.2899780273438 C2883.89111328125,-801.2899780273438 2879.885009765625,-799.7009887695312 2876.570068359375,-796.5239868164062 C2873.2548828125,-793.3469848632812 2871.596923828125,-789.4099731445312 2871.596923828125,-784.7130126953125 C2871.596923828125,-784.7130126953125 2871.596923828125,-680.6950073242188 2871.596923828125,-680.6950073242188 C2871.596923828125,-675.4459838867188 2873.18603515625,-670.9559936523438 2876.363037109375,-667.2260131835938 C2879.5400390625,-663.4959716796875 2883.614990234375,-661.6309814453125 2888.587890625,-661.6309814453125z"></path></g></g></g></svg>